<?xml version="1.0" encoding="UTF-8"?>
<svg id="Layer_1" xmlns="http://www.w3.org/2000/svg" version="1.1" viewBox="0 0 80 80">
  <!-- Generator: Adobe Illustrator 30.0.0, SVG Export Plug-In . SVG Version: 2.1.1 Build 123)  -->
  <defs>
    <style>
      .st0 {
        fill: #df7926;
      }

      .st1 {
        fill: #486072;
      }

      .st2 {
        fill: #090d0a;
      }

      .st3 {
        fill: #130c0c;
      }

      .st4 {
        fill: #a35419;
      }

      .st5 {
        fill: #fefefe;
      }

      .st6 {
        fill: #8fb974;
      }

      .st7 {
        fill: #0e0e0f;
      }
    </style>
  </defs>
  <path class="st5" d="M70,19.09c.21-5.06-2.46-9.85-7.21-11.81-1.29-.54-2.53-.69-3.9-.89-4.23-8.45-17.31-7.64-18.75,2.29l-.07,20.04c-.23.39-1.88.48-1.76-.32-.3-6.28.42-12.97.01-19.21-.45-6.82-7.3-10.37-13.43-7.85-2.38.98-3.94,2.97-5.33,5.05-5.47.41-10.06,4.38-10.91,9.85-.15.95-.1,1.9-.31,2.8-4.56,2.72-6.57,7.63-5.43,12.85-2.6,3.17-3.59,6.92-2.37,10.94.18.58.79,1.7.82,2.17.05.63-.49,1.62-.67,2.31-1.5,5.83.98,12.07,6.44,14.74.15,1.99.26,3.74,1.01,5.62,1.46,3.68,4.86,6.72,8.76,7.57,1.03.23,2.75.16,3.47.69.38.27.72.77,1.12,1.09,6.42,5.1,16.07,1.81,16.85-6.6v-18.81c.13-.7,1.01-.4,1.49-.47l.21.08c.08.21.1.41.13.63.43,6.03-.48,12.65,0,18.67.63,7.78,9.03,11.05,15.5,7.37.72-.41,2.7-2.2,3.02-2.3.53-.16,1.66-.1,2.37-.23,4.7-.84,8.69-4.82,9.77-9.43.27-1.17.18-2.08.33-3.17.14-1.02,1.42-1.27,2.19-1.84,3.99-2.96,5.65-8.71,4.52-13.44-.15-.63-.76-1.84-.74-2.38,0-.48.97-2.43,1.13-3.28.45-2.33.17-4.97-.85-7.12-.33-.71-1.76-2.48-1.83-2.84-.14-.73.21-1.5.25-2.2.29-4.44-1.8-8.58-5.81-10.59v.02Z"/>
  <path class="st0" d="M69.2,28.33c1.49,1.98,1.97,4.44,2.85,6.75-.19.23-.37.45-.58.64-.41.37-2.11,1.25-2.14,1.62-.02.26.21.56.29.81.33.1.63,0,.94-.13.18-.07,1.34-.77,1.51-.89,1.51,5.86,1.56,12.87-1.11,18.41-.29.59-1.13,1.68-1.29,2.21-.17.57.03,1.26-.09,1.85s-.8,1.05-.87,1.66h-.26c-.23-.32-.56-.07-.78,0-.13.03-.35-.05-.46.13-.25.84,0,1.3.85,1.44-.92,2.96-3.5,6.41-6.22,7.99-1.28.74-2.77.79-4.15,1.43-.51.24-1.05.47-1.3.97-.31-.25-.66-.53-.9-.85-.46-.58-.48-1.43-1.36-1.37-1.29.08-.08,1.84.32,2.35-.35.18-.8.06-1.21.14-.45.08-.95.38-1.44.38-.37,0-.77-.22-1.17-.25-.53-.05-1.09.03-1.62,0l.51-.85c-.43-.33-.89-.08-.78-.85-.17-.19-1.12.62-1.04,0,1.24-.34,3.43-1.38,4.42-2.21.24-.21.87-.66.78-.97-.46-.55-1.01,0-1.29.06-2.38.58-3.8,1.64-5.79,2.96-.22.14-.47.09-.56.15-.26.09-.24-.24-.34-.26-.87-.18-2.12-.06-2.89-.58v-5.83c0-.14-.25-.56-.13-.85h-.26v-.51c.49-.08.64-.58.65-1.04,1.83.56,3.96.56,5.74-.16.65-.26,1.14-.74,1.78-.88.23,1.68,1.35,3.1,2.89,3.79.46.21,1.9.72,2.3.43.19-.14.31-.95.03-1.12-.4-.25-1.37-.3-2.02-.66-1.17-.65-1.89-1.91-1.85-3.26.01-.65.54-1.76.27-2.29-.15-.3-.71-.35-.97-.19-.09.06-.92,1.48-1.29,1.82-1.77,1.62-3.99,1.85-6.22,1.17-.49-.15-1.29-.29-1.3-.9.19-2.81-.24-5.93,0-8.71.07-.78.16-.49.39-.71,2.61-.14,5.4.18,8,0,.25-.01.33-.11.43-.14.15-.03.42.08.51-.13h.13c.85-.03,2-1.11,2.36-1.85.57-1.21.24-2.32.49-3.54.4-.33.84.1,1.26.17,5.34.82,10.4-3.88,10.02-9.24-.05-.71-.39-1.4-.24-2.12,2.7-.78,4.36-3.18,4.27-5.98h-.02ZM55.74,58.52c.74.92,2.96-.42,3.66-.35.73.07,2.05,2.04,2.37,2.7.61,1.26.85,2.81.65,4.21-.08.62-.89,2.22-.86,2.47.1.66,1.11.9,1.6.48.73-2.49,1.1-4.77.13-7.26-.56-1.42-1.56-2.41-2.52-3.55,1.02-1,1.92-2.28,2.32-3.66.61-2.09.21-2.73.02-4.68-.09-.94.55-1.05,1.38-1.32,3.81-1.21,6.1,2.7,4.03,5.85-.4.62-1.51,1.36-1.14,1.98.61,1.04,1.59-.18,2.08-.79,2.37-2.96,1.43-7.08-2.07-8.56.31-.54.77-.97,1.1-1.5.45-.74,1.85-3.79.27-3.76-.9.02-.7,1.16-.94,1.92-.53,1.62-2.12,3.01-3.73,3.54-.51.17-2.45.39-2.6.64-.33.57.61,3.49.59,4.48-.03,2.91-2.02,5.22-4.81,5.85-.39.09-1.29.05-1.57.25-.23.17-.1.89.03,1.08h-.02ZM54.76,52.62c-.38.08-1.11.9-1.56,1.17-1.17.66-2.31.79-3.59.43-.78-.22-1.92-1.33-2.53-.71-1.11,1.13,2.08,2.23,2.87,2.32,1.67.19,4.22-.62,5.43-1.8.86-.84.53-1.66-.63-1.41h0Z"/>
  <path class="st0" d="M69.06,27.42c-.39-.82-.71-1.68-1.3-2.4-.41-.49-1.42-1.46-1.88-.46-.26.58.53.94.84,1.36,2.59,3.43.06,7.68-4.2,7.18-.59-.07-1.73-.67-2.09-.64-.47.06-.54.77-.37,1.14.22.51,2.71.89,3.31,1.02,1.67,4.53-1.94,9.58-6.69,9.78-.51.02-2.2-.14-2.54-.45-.29-.25-.35-.8-.38-1.18-.29-3.35.43-7.5-.03-10.74-.18-1.27-1.83-3.08-3.15-3.08h-2.33c-.56,0,.42-1.54.58-1.75,2.09-2.64,5.94-2.11,7,1.16.21.62.16,2.2,1.04,1.97.94-.25.43-2,.19-2.67-.57-1.57-2.33-3.27-4.03-3.49-.48-.07-2.16.1-2.4-.07-.51-3.73-3.75-6.32-7.52-5.07-.16.06-1.56.94-1.56.39v-10.89c0-1.43,1.58-3.83,2.67-4.74,4.31-3.59,11.01-1.64,13.32,3.28,1.02,2.16,1.57,6.38-.23,8.25-.96,1-2.06.65-2.95,1.2-.46.27-.17,1,.26,1.12.9.26,1.96-.62,3.32.05s1.94,2.93,1.76,4.31c-.07.48-.66,1.35-.39,1.7.11.16.66.4.86.39.55-.02.64-.73.76-1.14.7-2.6-.22-5.24-2.49-6.67,1.64-2.54,1.78-5.5.89-8.35,5.14.48,8.9,4.53,9.21,9.67.08,1.36-.66.71-1.49.73-.39.01-1.86.05-1.88.55,0,.14.23.77.32.86.34.34,1.13,0,1.56,0,1.21,0,2.48.63,3.44,1.3-.42,2.06-.64,4.07-1.2,6.13-.05.15-.22.21-.23.23ZM50.05,10.73c.26-.29,1.29-.76,1.36-1.04-.41-2.27-1.75-.23-2.38-.3-.72-.59-2.44-1.72-3.37-1.57-.5.08-.74.87-.33,1.22.5.42,1.73.48,2.46,1.17.9.84.27.88.25,1.69-.03.92.63,3.12,1.86,2.76,1.01-.31.1-1.1-.1-1.53-.39-.82-.41-1.72.24-2.43v.02Z"/>
  <path class="st4" d="M72.05,37.15c1.01-.78,2.09-2.46,2.6-3.63.38-.25,1.06,1.1,1.22,1.42,1.26,2.36,1.5,5.24.64,7.78-.3.88-.85,1.64-1.1,2.53,1.67,3.21,1.85,6.81.41,10.15-1.12,2.61-4.18,5.82-7.16,5.88.08-.61.73-1.04.87-1.66s-.08-1.27.09-1.85c.16-.54,1.01-1.61,1.29-2.21,2.68-5.54,2.62-12.55,1.11-18.41h.02Z"/>
  <path class="st4" d="M41.57,64.39h.26c-.13.27.13.7.13.85v5.83c.78.53,2.02.4,2.89.58.11.02.09.35.34.26-.06.02-.18.34-.13.39.76-.1,1.88-.19,2.6-.39-.08.62.86-.19,1.04,0-.11.77.34.51.78.85l-.51.85c.53.03,1.1-.05,1.62,0,.4.03.8.25,1.17.25.5,0,1-.29,1.44-.38.42-.08.86.05,1.21-.14.29.35.74.74,1.11,1.03.24.19,1.28.73,1.22.96-5.15,4.89-14.62,2.81-15.18-4.92-.14-1.88-.01-4.13,0-6.04h0Z"/>
  <path class="st0" d="M41.57,22.03c.3-1.48,2.94-2.04,4.21-1.86,2.17.29,4.5,3.47,2.91,5.35-.25.3-.66.53-.95.86-.7.81-.79,1.64-1.17,2.6h-4.81l-.19-.19v-6.75Z"/>
  <path class="st4" d="M68.03,62.83c.34.06,1.53-.15,1.62,0,.41,4.56-2.89,9.04-7.08,10.57-1.2.45-3.58.92-4.83.69-.56-.1-.98-.54-1.4-.88.25-.5.78-.73,1.3-.97,1.38-.64,2.87-.69,4.15-1.43,2.72-1.57,5.31-5.01,6.22-7.99h0Z"/>
  <path class="st4" d="M72.05,35.08c-.88-2.31-1.37-4.77-2.85-6.75,0-.22-.23-.56-.13-.9,0-.01.18-.08.23-.23.56-2.06.78-4.07,1.2-6.13,4.6,3.23,5.17,9.79,1.56,14.01h-.01Z"/>
  <path class="st3" d="M42.08,50.9c.03-.07-.08-.27.08-.26,2.88.09,5.8-.11,8.68,0,.32.01.42-.09.19.26h-.13s-.35-.35-.51.13c-.1.02-.18.13-.43.14-2.6.17-5.38-.15-8,0l.13-.13,7.53-.07-7.53-.07h-.01Z"/>
  <path class="st2" d="M42.08,50.9l7.53.07-7.53.07s-.01-.09,0-.13h0Z"/>
  <path class="st4" d="M42.21,62.83c0,.46-.16.96-.65,1.04v-1.29c.37-.17.62.25.65.26h0Z"/>
  <path class="st4" d="M68.42,61.28h-.78c.22-.07.55-.32.78,0Z"/>
  <path class="st3" d="M55.74,58.52c-.14-.18-.26-.9-.03-1.08.27-.21,1.18-.16,1.57-.25,2.78-.63,4.77-2.94,4.81-5.85,0-.98-.93-3.9-.59-4.48.15-.25,2.09-.48,2.6-.64,1.61-.53,3.2-1.91,3.73-3.54.24-.77.05-1.91.94-1.92,1.58-.03.17,3.02-.27,3.76-.32.54-.78.96-1.1,1.5,3.5,1.49,4.45,5.59,2.07,8.56-.49.61-1.48,1.83-2.08.79-.35-.62.74-1.36,1.14-1.98,2.06-3.15-.22-7.06-4.03-5.85-.82.26-1.48.38-1.38,1.32.18,1.94.58,2.57-.02,4.68-.4,1.38-1.3,2.65-2.32,3.66.96,1.13,1.96,2.13,2.52,3.55.97,2.49.61,4.77-.13,7.26-.49.41-1.51.17-1.6-.48-.03-.25.77-1.85.86-2.47.18-1.4-.05-2.95-.65-4.21-.32-.66-1.64-2.62-2.37-2.7s-2.92,1.27-3.66.35h.02Z"/>
  <path class="st3" d="M54.76,52.62c1.16-.25,1.49.57.63,1.41-1.21,1.18-3.78,1.99-5.43,1.8-.78-.09-3.97-1.18-2.87-2.32.59-.62,1.75.49,2.53.71,1.28.37,2.43.24,3.59-.43.46-.26,1.18-1.09,1.56-1.17h0Z"/>
  <path class="st3" d="M51.56,68.8c.18.33.58.47.51.9-.98.82-3.18,1.86-4.42,2.21-.72.19-1.83.29-2.6.39-.05-.05.08-.37.13-.39.1-.05.35,0,.56-.15,2-1.34,3.41-2.38,5.79-2.96h.02Z"/>
  <path class="st4" d="M51.56,68.8c.29-.07.84-.62,1.29-.06.09.31-.54.77-.78.97.07-.43-.34-.58-.51-.9h0Z"/>
  <path class="st7" d="M50.9,50.9c-.09.21-.37.1-.51.13.16-.48.47-.13.51-.13Z"/>
  <path class="st3" d="M50.05,10.73c-.65.71-.64,1.6-.24,2.43.21.43,1.11,1.22.1,1.53-1.22.37-1.89-1.84-1.86-2.76.03-.81.65-.86-.25-1.69-.73-.69-1.96-.74-2.46-1.17-.41-.35-.18-1.16.33-1.22.94-.15,2.65.97,3.37,1.57.62.06,1.97-1.98,2.38.3-.07.29-1.11.76-1.36,1.04v-.02Z"/>
  <path class="st7" d="M70,19.09c4.02,2.01,6.09,6.16,5.81,10.59-.05.71-.39,1.46-.25,2.2.07.35,1.5,2.13,1.83,2.84,1.02,2.16,1.29,4.78.85,7.12-.16.86-1.13,2.8-1.13,3.28,0,.53.59,1.74.74,2.38,1.13,4.74-.53,10.48-4.52,13.44-.77.57-2.04.82-2.19,1.84-.15,1.09-.07,2-.33,3.17-1.06,4.61-5.07,8.6-9.77,9.43-.71.13-1.84.07-2.37.23-.32.1-2.3,1.89-3.02,2.3-6.48,3.68-14.87.41-15.5-7.37-.49-6.02.42-12.64,0-18.67-.01-.22-.05-.42-.13-.63l-.21-.08c-.48.07-1.36-.23-1.5.47v18.81c-.78,8.4-10.43,11.7-16.85,6.6-.4-.32-.73-.81-1.12-1.09-.71-.53-2.44-.47-3.47-.69-3.9-.86-7.3-3.89-8.76-7.57-.74-1.88-.85-3.63-1.01-5.62-5.46-2.67-7.94-8.9-6.44-14.74.17-.69.72-1.69.67-2.31-.03-.47-.64-1.59-.82-2.17-1.22-4.02-.23-7.77,2.37-10.94-1.13-5.22.87-10.12,5.43-12.85.21-.9.16-1.85.31-2.8.85-5.47,5.45-9.44,10.91-9.85,1.4-2.08,2.95-4.07,5.33-5.05,6.14-2.53,12.99,1.02,13.43,7.85.41,6.24-.31,12.93-.01,19.21-.11.8,1.53.71,1.76.32l.07-20.04c1.45-9.93,14.53-10.73,18.75-2.29,1.37.22,2.61.37,3.9.89,4.74,1.94,7.41,6.75,7.21,11.81v-.02ZM36.89,70.43v-19.07l-.19-.19h-7.33c-.33.84-.01,1.73,0,2.53.02.92-.18,3.32.02,4,.09.3,1.36.79,1.78,1.36,3,4.07-3.66,7.79-5.64,3.66-.55-1.16-.21-1.93-.25-3.11-2.06-1.83-3.99-3.84-6.18-5.5-1.99-.84-1.66.59-2.52,1.49-.43.45-1.72.81-1.75,1.22l.64,3.9c1.06.5,2.15.8,2.7,1.97.15.32.27,1.24.5,1.32.89.16,2.88-1.01,3.55-.43s1.12,3.15,1.19,4.06c1.35.02,2.28.51,3.34,1.26.25.17,1.33,1,1.42,1.17.33.57.08,1.33-.59,1.45-1.1.21-1.91-2.54-3.73-2.46-1.61.07-1.26,1.9-1.67,2.23-.47.38-1.27.03-1.37-.61-.26-1.68,1.17-1.86,1.25-3,.02-.33-.33-2.12-.48-2.45-.05-.13-.03-.26-.22-.31-.19-.07-2.43.49-2.73.61-.71.27-1.05,1.14-1.81,1.57-3.36,1.85-6.54-2.33-4.26-5.03.34-.4,1.08-.73,1.25-.96.42-.59-.37-3.48-.33-4.35-.37-.45-.88-.48-1.36-.85-.74-.56-.88-1.3-1.45-1.92-1.26-.25-2.79.1-4.03-.13-.63-.11-.61-.96-.14-1.25.72-.46,3.34.11,4.3-.23.18-.08.32-.67.49-.94.81-1.22,1.88-1.74,3.36-1.57.64.07,1.11.58,1.72.29l7.05-5.93c.33-.16,1.29-.47,1.29-.92v-2.46l-.19-.19h-9.47c-.55.59-.62,1.42-1.29,1.94-2.48,1.97-5.8.1-5.51-3.05s4.22-3.75,6.02-1.49c.27.34.43,1.06.92,1.16h8.69c1.06,0,.92-1.5.84-2.27-.15-1.44-1.22-.85-2.25-.98-1.53-.21-3.47-3.04-4.64-4.05-.73-.25-1.45.22-2.23.17-1.61-.09-2.69-1.52-3.18-2.93-.47-.16-.98.01-1.46-.09-.87-.19-2.23-2.05-2.88-2.7l-.06-.31c.88-2.02,2.39,1.33,3.47,1.58,1.43.33,1.41-.77,2.25-1.45.54-.43,1.13-.54,1.68-.92l1.28-6.22c-.03-.57-1.36-1.14-1.7-2.05-1.25-3.33,2.53-6.28,5.27-3.98,1.66,1.38,1.52,4.21-.27,5.42-.53.35-1.72.51-1.92.94l-1.11,6.13c1.45.56,2.39,1.86,2.28,3.47-.06.8-.85,1.52-.33,2.14l3.46,3.29c2.87.59,2.16-.29,2.4-2.24.1-.9.63-1.85,1.37-2.39.57-.41,1.78-.62,1.86-1.25.11-.98.14-4.51-.01-5.45-.1-.64-1.35-1.37-1.93-1.18-.98.46-2.78,2.88-3.64,3.12-.63.17-1.06-.42-.88-1.02.1-.34,1.2-1.02,1.53-1.33.31-.29,2.2-2,2.27-2.14.21-.46-.08-1.08-.07-1.61.02-.7.4-1.6.9-2.08.46-.45,1.68-.78,1.78-1.32.1-.51.11-2.84,0-3.32-.14-.63-.9-.69-1.41-1.06-1.68-1.27-1.76-3.98-.06-5.25,3.15-2.37,7.2,1.44,4.86,4.6-.5.69-1.8,1.18-1.96,1.54-.19.43.02.65.02,1.04,0,.93-.03,1.85.01,2.77.97.34,1.61.8,2.16,1.67.17.26.15.67.5.8.3.09,3.99.09,4.38.02.32-.06.46-.25.47-.57-.43-4.87,1.58-10.98-3.12-14.27s-11.29-.86-13.23,4.53c-.82.16-1.68,0-2.52.08-2.64.27-5.37,2.52-6.67,4.75-1.3,2.23-1.46,4.4-1.54,6.89-.69.65-1.56.97-2.3,1.59-2.59,2.13-3.72,5.43-3.44,8.75.07.79.4,1.53.39,2.33-.06.33-.87.96-1.14,1.33-3.12,4.07-2.41,10.32,2.09,13.04.49.3,1.45.4,1.06,1.27s-2.04-.17-2.57-.54c-.26-.18-1.25-1.26-1.51-1.02-1.74,5.07-.17,11.14,4.62,13.87.56.32,3.17,1.25,3.28,1.4.23.31.08.87-.25,1.03-.42.21-.86-.1-1.29-.07-.24,3.6,1.56,7.02,4.35,9.21,2.27,1.77,4.77,2.32,7.63,2.23,4.58,6.3,15.38,4.61,16.18-3.72l-.03-.03ZM70.49,21.06c-.96-.67-2.23-1.29-3.44-1.3-.42,0-1.21.35-1.56,0-.09-.09-.32-.72-.32-.86.01-.5,1.49-.54,1.88-.55.84-.02,1.58.63,1.49-.73-.31-5.14-4.07-9.19-9.21-9.67.89,2.85.74,5.81-.89,8.35,2.28,1.43,3.19,4.08,2.49,6.67-.1.4-.21,1.12-.76,1.14-.19,0-.74-.24-.86-.39-.27-.35.32-1.22.39-1.7.18-1.38-.45-3.66-1.76-4.31s-2.41.22-3.32-.05c-.45-.13-.72-.85-.26-1.12.89-.55,1.99-.21,2.95-1.2,1.8-1.86,1.25-6.07.23-8.25-2.31-4.92-9-6.86-13.32-3.28-1.09.9-2.67,3.31-2.67,4.74v10.89c0,.55,1.4-.33,1.56-.39,3.76-1.25,7,1.34,7.52,5.07.23.16,1.91,0,2.4.07,1.69.22,3.46,1.93,4.03,3.49.24.66.74,2.43-.19,2.67-.88.23-.84-1.34-1.04-1.97-1.06-3.26-4.91-3.8-7-1.16-.16.21-1.16,1.75-.58,1.75h2.33c1.3,0,2.96,1.82,3.15,3.08.47,3.24-.25,7.39.03,10.74.03.38.09.93.38,1.18.34.31,2.02.46,2.54.45,4.75-.21,8.36-5.25,6.69-9.78-.59-.13-3.08-.5-3.31-1.02-.16-.38-.09-1.09.37-1.14.35-.05,1.5.57,2.09.64,4.26.49,6.78-3.75,4.2-7.18-.32-.42-1.11-.78-.84-1.36.46-1.01,1.48-.03,1.88.46.59.71.9,1.58,1.3,2.4-.1.34.13.7.13.9.09,2.8-1.57,5.21-4.27,5.98-.14.72.19,1.41.24,2.12.37,5.38-4.68,10.08-10.02,9.24-.43-.07-.86-.49-1.26-.17-.25,1.2.08,2.32-.49,3.54-.35.74-1.51,1.83-2.36,1.85.23-.35.13-.25-.19-.26-2.88-.11-5.79.09-8.68,0-.16-.02-.05.19-.08.26-.01.03.01.09,0,.13l-.13.13c-.23.22-.33-.07-.39.71-.24,2.78.19,5.89,0,8.71.01.62.81.74,1.3.9,2.24.69,4.45.47,6.22-1.17.38-.34,1.19-1.76,1.29-1.82.26-.16.84-.1.97.19.26.54-.26,1.65-.27,2.29-.03,1.35.69,2.61,1.85,3.26.65.37,1.62.41,2.02.66.27.17.16.98-.03,1.12-.4.29-1.84-.23-2.3-.43-1.54-.69-2.67-2.11-2.89-3.79-.64.14-1.13.61-1.78.88-1.78.72-3.91.72-5.74.16-.03,0-.29-.43-.65-.26v1.81c-.02,1.91-.14,4.16,0,6.04.55,7.72,10.03,9.8,15.18,4.92.05-.24-1-.78-1.22-.96-.37-.29-.81-.67-1.11-1.03-.4-.5-1.61-2.27-.32-2.35.88-.06.92.79,1.36,1.37.25.32.59.58.9.85.41.34.84.78,1.4.88,1.25.23,3.63-.25,4.83-.69,4.19-1.53,7.49-6.01,7.08-10.57-.09-.15-1.28.06-1.62,0-.86-.13-1.1-.59-.85-1.44.1-.16.33-.08.46-.13h1.04c2.97-.06,6.03-3.27,7.16-5.88,1.44-3.34,1.26-6.93-.41-10.15.24-.89.8-1.65,1.1-2.53.86-2.54.62-5.42-.64-7.78-.17-.32-.86-1.67-1.22-1.42-.5,1.17-1.6,2.85-2.6,3.63-.17.13-1.33.82-1.51.89-.31.11-.61.23-.94.13-.08-.25-.31-.55-.29-.81.03-.38,1.73-1.26,2.14-1.62.23-.19.4-.42.58-.64,3.6-4.22,3.04-10.79-1.56-14.01h0ZM30.55,8.47c0-1.09-.88-1.97-1.97-1.97s-1.97.88-1.97,1.97.88,1.97,1.97,1.97,1.97-.88,1.97-1.97ZM19.34,14.11c-1.57-1.41-4.16.57-2.92,2.6,1.59,2.59,5.14-.61,2.92-2.6ZM30.56,19.16c0-1.1-.88-1.98-1.98-1.98s-1.98.88-1.98,1.98.88,1.98,1.98,1.98,1.98-.88,1.98-1.98ZM32.03,19.77c-.37.56-.55,1.34-1.03,1.82s-1.59.65-1.73,1.26l.16,6.02c.09.14.25.11.39.13,1.58.19,4.6.11,6.29.08.27,0,.61-.06.79-.29v-8.82l-.19-.19h-4.68ZM41.57,22.03v6.75l.19.19h4.81c.38-.96.47-1.78,1.17-2.6.29-.34.7-.56.95-.86,1.58-1.89-.73-5.07-2.91-5.35-1.27-.17-3.91.39-4.21,1.86ZM17.78,28.73c0-1.08-.87-1.94-1.94-1.94s-1.94.87-1.94,1.94.87,1.94,1.94,1.94,1.94-.87,1.94-1.94ZM27.91,30.43c-.98.25-1.67.8-1.78,1.85-.51,4.82.39,10.53,0,15.43.17,1.48,1.18,1.89,2.53,2.01,6.83-.41,14.27.53,21.03,0,1.4-.11,2.36-.54,2.65-2.01-.23-4.91.23-9.92.13-14.78-.02-1.24-1-2.48-2.27-2.54,0,0-22.29.03-22.29.03ZM13.51,40.04c0-1.09-.88-1.98-1.98-1.98s-1.98.88-1.98,1.98.88,1.98,1.98,1.98,1.98-.88,1.98-1.98ZM24.71,45.19c-.22-.03-.34.1-.5.21-1.19.77-2.89,2.38-4.04,3.36-.95.82-1.84,1.72-2.86,2.46-.5,1.99,1.58.87,2.54,1.5,1.96,1.28,3.99,3.91,5.9,5.38.66.62,2.06.02,2.2-.78.27-1.68-.16-4.04-.02-5.8-.14-.66-.89-.59-1.36-.85-.72-.39-1.85-1.74-1.85-2.55v-2.92h0ZM16.11,53.19c0-1.1-.89-1.99-1.99-1.99s-1.99.89-1.99,1.99.89,1.99,1.99,1.99,1.99-.89,1.99-1.99ZM30.49,61.16c0-1.09-.88-1.97-1.97-1.97s-1.97.88-1.97,1.97.88,1.97,1.97,1.97,1.97-.88,1.97-1.97ZM17.14,64.17c0-1.09-.88-1.97-1.97-1.97s-1.97.88-1.97,1.97.88,1.97,1.97,1.97,1.97-.88,1.97-1.97Z"/>
  <path class="st1" d="M36.89,70.43c-.8,8.33-11.59,10.02-16.18,3.72-2.86.09-5.37-.46-7.63-2.23-2.79-2.19-4.59-5.61-4.35-9.21.43-.03.87.27,1.29.07.32-.16.48-.72.25-1.03-.1-.15-2.72-1.08-3.28-1.4-4.79-2.72-6.36-8.8-4.62-13.87.27-.24,1.25.84,1.51,1.02.54.37,2.17,1.42,2.57.54s-.56-.97-1.06-1.27c-4.51-2.71-5.22-8.97-2.09-13.04.27-.37,1.09-1,1.14-1.33.01-.8-.32-1.54-.39-2.33-.27-3.32.86-6.61,3.44-8.75.74-.62,1.61-.94,2.3-1.59.08-2.48.26-4.7,1.54-6.89,1.28-2.19,4.03-4.47,6.67-4.75.84-.09,1.69.08,2.52-.08C22.45,2.62,28.87.07,33.75,3.48c4.89,3.41,2.69,9.39,3.12,14.27,0,.32-.15.51-.47.57-.39.08-4.08.07-4.38-.02-.35-.11-.33-.53-.5-.8-.55-.87-1.19-1.32-2.16-1.67-.05-.93-.02-1.85-.01-2.77,0-.39-.21-.62-.02-1.04.16-.37,1.45-.87,1.96-1.54,2.33-3.16-1.72-6.97-4.86-4.6-1.7,1.28-1.62,3.98.06,5.25.5.38,1.26.43,1.41,1.06.1.49.09,2.81,0,3.32-.1.55-1.33.87-1.78,1.32-.5.49-.88,1.38-.9,2.08-.02.54.27,1.16.07,1.61-.07.14-1.96,1.85-2.27,2.14-.33.31-1.43.97-1.53,1.33-.18.59.26,1.19.88,1.02.86-.24,2.65-2.67,3.64-3.12.58-.21,1.83.54,1.93,1.18.15.94.14,4.46.01,5.45-.08.63-1.29.84-1.86,1.25-.74.54-1.26,1.49-1.37,2.39-.23,1.96.48,2.84-2.4,2.24l-3.46-3.29c-.51-.61.27-1.33.33-2.14.11-1.6-.82-2.89-2.28-3.47l1.11-6.13c.21-.42,1.4-.58,1.92-.94,1.8-1.21,1.93-4.04.27-5.42-2.75-2.3-6.53.65-5.27,3.98.34.92,1.67,1.48,1.7,2.05l-1.28,6.22c-.55.38-1.14.48-1.68.92-.85.69-.82,1.78-2.25,1.45-1.08-.25-2.59-3.6-3.47-1.58l.06.31c.65.65,2.01,2.51,2.88,2.7.48.1,1-.07,1.46.09.49,1.4,1.57,2.84,3.18,2.93.78.05,1.51-.42,2.23-.17,1.18,1.01,3.12,3.84,4.64,4.05,1.04.14,2.11-.46,2.25.98.08.77.22,2.28-.84,2.28h-8.69c-.48-.1-.65-.82-.92-1.16-1.8-2.27-5.74-1.54-6.02,1.49s3.03,5.01,5.51,3.05c.67-.53.76-1.35,1.29-1.94h9.47l.19.19v2.46c0,.45-.96.76-1.29.92l-7.05,5.93c-.61.3-1.08-.22-1.72-.29-1.49-.17-2.55.34-3.36,1.57-.17.26-.31.86-.49.94-.96.34-3.58-.23-4.3.23-.46.3-.49,1.13.14,1.25,1.24.23,2.77-.13,4.03.13.58.62.71,1.36,1.45,1.92.48.37,1.01.4,1.36.85-.03.88.77,3.75.33,4.35-.17.23-.9.56-1.25.96-2.29,2.7.9,6.9,4.26,5.03.76-.42,1.1-1.28,1.81-1.57.31-.13,2.54-.67,2.73-.61.17.05.16.19.22.31.14.33.5,2.12.48,2.45-.08,1.12-1.51,1.3-1.25,3,.1.63.9.98,1.37.61.41-.33.06-2.16,1.67-2.23,1.82-.08,2.63,2.67,3.73,2.46.69-.13.93-.88.59-1.45-.1-.17-1.18-1-1.42-1.17-1.06-.76-1.99-1.24-3.34-1.26-.07-.93-.5-3.48-1.19-4.06s-2.65.59-3.55.43c-.23-.08-.35-1-.5-1.32-.55-1.17-1.64-1.48-2.7-1.97l-.64-3.9c.03-.41,1.32-.78,1.75-1.22.86-.88.53-2.32,2.52-1.49,2.19,1.66,4.12,3.67,6.18,5.5.06,1.19-.3,1.97.25,3.11,1.98,4.13,8.64.4,5.64-3.66-.42-.57-1.69-1.05-1.78-1.36-.21-.67,0-3.09-.02-4-.02-.8-.34-1.68,0-2.53h7.33l.19.19v19.07l.03.02Z"/>
  <path class="st1" d="M24.71,45.19v2.92c0,.81,1.13,2.17,1.85,2.55.47.25,1.21.18,1.36.85-.14,1.76.29,4.12.02,5.8-.13.8-1.53,1.4-2.2.78-1.91-1.48-3.95-4.1-5.9-5.38-.96-.63-3.04.49-2.54-1.5,1.02-.74,1.91-1.64,2.86-2.46,1.13-.98,2.84-2.59,4.04-3.36.16-.1.3-.24.5-.21h0Z"/>
  <path class="st1" d="M32.03,19.77h4.67l.19.19v8.82c-.18.22-.51.27-.79.29-1.68.03-4.71.11-6.29-.08-.14-.01-.3,0-.39-.13l-.16-6.02c.14-.61,1.22-.76,1.73-1.26s.66-1.27,1.03-1.82h.01Z"/>
  <circle class="st6" cx="14.13" cy="53.19" r="1.99"/>
  <circle class="st6" cx="28.58" cy="19.16" r="1.98"/>
  <circle class="st6" cx="11.53" cy="40.04" r="1.98"/>
  <circle class="st6" cx="15.18" cy="64.17" r="1.97"/>
  <circle class="st6" cx="28.58" cy="8.47" r="1.97"/>
  <path class="st6" d="M19.34,14.11c2.22,1.99-1.33,5.17-2.92,2.6-1.25-2.02,1.35-4,2.92-2.6Z"/>
  <circle class="st6" cx="28.53" cy="61.16" r="1.97"/>
  <circle class="st6" cx="15.84" cy="28.73" r="1.94"/>
  <path class="st6" d="M27.91,30.43l22.29-.03c1.27.06,2.24,1.3,2.27,2.54.1,4.87-.35,9.88-.13,14.78-.3,1.48-1.27,1.9-2.65,2.01-6.76.53-14.2-.41-21.03,0-1.34-.13-2.36-.54-2.53-2.01.39-4.91-.51-10.62,0-15.43.11-1.05.8-1.6,1.78-1.85ZM39.94,45.72h2.79l-4.02-11.19c-.25-.31-2.08-.27-2.54-.23-.55.06-.58.11-.84.58l-3.75,10.63c.06.16.17.18.32.21.26.05,1.65.13,1.89.08,1.05-.23.71-1.59,1.25-2.29.27-.18,3.42-.18,3.81-.06.74.24.72,2.16,1.1,2.28h-.01ZM43.63,34.29v11.42h2.73v-11.42h-2.73Z"/>
  <rect class="st7" x="43.63" y="34.29" width="2.73" height="11.42"/>
  <path class="st2" d="M39.94,45.72c-.37-.11-.34-2.04-1.1-2.28-.39-.13-3.54-.11-3.81.06-.54.71-.19,2.06-1.25,2.29-.24.06-1.62-.03-1.89-.08-.15-.02-.26-.06-.32-.21l3.75-10.63c.25-.47.3-.54.84-.58.46-.05,2.3-.08,2.54.23l4.02,11.19h-2.79.01ZM38.45,41.3l-1.3-4.28c-.37.45-.55,1.21-.74,1.78-.26.79-.56,1.67-.69,2.49h2.73Z"/>
  <path class="st6" d="M38.45,41.3h-2.72c.13-.82.42-1.69.69-2.49.19-.57.37-1.35.74-1.78l1.3,4.28h-.01Z"/>
</svg>