<?xml version="1.0" encoding="UTF-8"?>
<svg id="Layer_1" xmlns="http://www.w3.org/2000/svg" version="1.1" viewBox="0 0 359.28 230.89">
  <!-- Generator: Adobe Illustrator 30.0.0, SVG Export Plug-In . SVG Version: 2.1.1 Build 123)  -->
  <defs>
    <style>
      .st0 {
        fill: #df7926;
      }

      .st1 {
        fill: #486072;
      }

      .st2 {
        fill: #d26727;
      }

      .st3 {
        fill: none;
        stroke: #df7926;
        stroke-linecap: round;
        stroke-linejoin: round;
        stroke-width: 1.31px;
      }
    </style>
  </defs>
  <path class="st1" d="M195.81,90.5h-60.6c-1.49,0-2.7-1.21-2.7-2.7s1.21-2.7,2.7-2.7h60.6c1.49,0,2.7,1.21,2.7,2.7s-1.21,2.7-2.7,2.7"/>
  <path class="st1" d="M233.43,127.07h-88.42c-1.49,0-2.7-1.21-2.7-2.7s1.21-2.7,2.7-2.7h88.42c1.49,0,2.7,1.21,2.7,2.7s-1.21,2.7-2.7,2.7"/>
  <path class="st1" d="M271.71,53.92h-109.63c-1.49,0-2.7-1.21-2.7-2.7s1.21-2.7,2.7-2.7h109.63c1.49,0,2.7,1.21,2.7,2.7s-1.21,2.7-2.7,2.7"/>
  <path class="st1" d="M208.36,163.64c-1.49,0-2.7-1.21-2.7-2.7V14.64c0-1.49,1.21-2.7,2.7-2.7s2.7,1.21,2.7,2.7v146.3c0,1.49-1.21,2.7-2.7,2.7"/>
  <path class="st1" d="M208.36,163.64c-.82,0-1.64-.37-2.17-1.08-.89-1.2-.65-2.89.55-3.78,7.95-5.95,15.28-14.44,21.18-24.56.75-1.29,2.41-1.72,3.7-.97,1.29.75,1.73,2.41.97,3.7-6.27,10.74-14.09,19.78-22.61,26.16-.49.36-1.05.54-1.62.54"/>
  <path class="st1" d="M243.43,72.58c-1.3,0-2.45-.95-2.67-2.27-3.44-21.32-15.2-39.81-34-53.45-1.21-.88-1.48-2.57-.6-3.78.88-1.21,2.57-1.48,3.78-.6,19.98,14.51,32.49,34.21,36.16,56.97.24,1.47-.76,2.86-2.24,3.1-.15.02-.29.03-.43.03"/>
  <path class="st1" d="M208.36,163.64c-.56,0-1.13-.18-1.62-.54-12.39-9.27-23.31-24.35-29.96-41.38-.54-1.39.14-2.96,1.53-3.5,1.39-.54,2.96.14,3.5,1.53,6.3,16.12,16.57,30.34,28.17,39.02,1.2.89,1.44,2.59.55,3.78-.53.71-1.34,1.08-2.17,1.08"/>
  <path class="st1" d="M175.35,111.24c-1.2,0-2.3-.81-2.62-2.03-9.93-38.56,2.48-73.82,34.04-96.73,1.21-.88,2.9-.61,3.78.6.88,1.21.61,2.9-.6,3.78-42.13,30.59-36.4,73.83-31.98,91,.37,1.45-.5,2.92-1.95,3.29-.22.06-.45.09-.68.09"/>
  <path class="st1" d="M238.18,90.28h-29.83c-1.49,0-2.7-1.21-2.7-2.7s1.21-2.7,2.7-2.7h29.83c1.49,0,2.7,1.21,2.7,2.7s-1.21,2.7-2.7,2.7"/>
  <path class="st1" d="M208.36,163.62c-41.83,0-75.85-34.02-75.85-75.83S166.53,11.96,208.36,11.96c34.32,0,64.46,23.13,73.3,56.24.38,1.44-.47,2.93-1.92,3.31-1.45.39-2.93-.47-3.31-1.91-8.2-30.75-36.2-52.23-68.07-52.23-38.84,0-70.44,31.59-70.44,70.42s31.6,70.42,70.44,70.42c8.3,0,16.42-1.43,24.14-4.24,1.4-.51,2.95.21,3.47,1.61.51,1.4-.21,2.96-1.61,3.47-8.32,3.03-17.06,4.57-26,4.57"/>
  <path class="st1" d="M208.36,163.64c-1.49,0-2.7-1.21-2.7-2.7V14.66c0-1.49,1.21-2.7,2.7-2.7s2.7,1.21,2.7,2.7v146.28c0,1.49-1.21,2.7-2.7,2.7"/>
  <path class="st3" d="M274.18,138.79v-53.59h-.03c-.29-6.6-5.73-11.87-12.4-11.87s-12.11,5.27-12.4,11.87h-.03v53.59c-4.98,3.77-8.22,9.73-8.22,16.46,0,11.4,9.24,20.65,20.65,20.65s20.65-9.24,20.65-20.65c0-6.73-3.23-12.69-8.22-16.46Z"/>
  <path class="st0" d="M265.53,151.16v-48.73h-7.57v48.73c-1.82,1.07-3.03,2.89-3.03,4.95,0,3.28,3.06,5.95,6.81,5.95s6.81-2.67,6.81-5.95c0-2.06-1.2-3.88-3.03-4.95"/>
  <path class="st2" d="M13.33,89.39C13.33,40.3,45.57,10.38,88.61,10.38c20.59,0,36.73,8.98,46.65,18.77l-11.83,12.61c-8.92-8.54-20.13-14.35-34.45-14.35-32.06,0-53.36,23.56-53.36,61.47s20.35,62.23,52.52,62.23c16.19,0,28.49-6.32,39.32-17.09l11.83,12.15c-13.4,13.96-30.01,21.97-52.04,21.97-42.25,0-73.91-29.32-73.91-78.74Z"/>
  <path class="st1" d="M295.72,167.22c18.86-15.73,32.14-26.9,32.14-36.26,0-6.32-3.98-9.81-10.5-9.81-5.27,0-9.46,3.2-13.16,6.65l-9.29-8.17c7.29-6.88,14.21-10.36,24.8-10.36,14.61,0,24.57,8.23,24.57,20.84,0,11.01-11.65,22.74-23.78,33.82,3.82-.38,8.98-.75,12.41-.75h14.91v12.72h-52.11v-8.68Z"/>
  <g>
    <path class="st1" d="M32.33,202.75c0-11.39,7.53-18,16.21-18,4.44,0,8.01,2.09,10.32,4.46l-4.09,4.98c-1.72-1.61-3.58-2.73-6.06-2.73-4.71,0-8.43,4.15-8.43,11.03s3.28,11.16,8.3,11.16c2.82,0,5.04-1.39,6.72-3.21l4.09,4.87c-2.85,3.32-6.64,5.04-11.09,5.04-8.71,0-15.98-6.04-15.98-17.6Z"/>
    <path class="st1" d="M70.99,185.39h9.29l10.78,34.33h-8.21l-4.49-17.39c-.95-3.43-1.87-7.49-2.79-11.07h-.21c-.83,3.62-1.75,7.64-2.7,11.07l-4.51,17.39h-7.94l10.78-34.33ZM67.32,205.51h16.52v6.03h-16.52v-6.03Z"/>
    <path class="st1" d="M94.36,185.39h12.36c7.28,0,13.25,2.53,13.25,10.69s-5.97,11.29-13.25,11.29h-4.6v12.35h-7.76v-34.33ZM106.1,201.2c4.08,0,6.28-1.75,6.28-5.12s-2.19-4.53-6.28-4.53h-3.97v9.65h3.97ZM105.31,205.32l5.37-4.97,10.96,19.37h-8.69l-7.64-14.4Z"/>
    <path class="st1" d="M126.65,185.39h11.75c7.13,0,12.66,1.96,12.66,8.51,0,3.08-1.72,6.36-4.52,7.41v.21c3.51.91,6.21,3.49,6.21,8.08,0,6.98-5.91,10.11-13.37,10.11h-12.73v-34.33ZM138.04,199.14c3.77,0,5.43-1.59,5.43-4.09,0-2.64-1.76-3.67-5.38-3.67h-3.69v7.76h3.63ZM138.75,213.73c4.23,0,6.42-1.51,6.42-4.63s-2.15-4.24-6.42-4.24h-4.34v8.86h4.34Z"/>
    <path class="st1" d="M156.89,202.41c0-11.22,6.33-17.65,15.59-17.65s15.59,6.48,15.59,17.65-6.33,17.95-15.59,17.95-15.59-6.73-15.59-17.95ZM180.12,202.41c0-6.88-2.95-10.95-7.64-10.95s-7.64,4.06-7.64,10.95,2.95,11.24,7.64,11.24,7.64-4.36,7.64-11.24Z"/>
    <path class="st1" d="M194.54,185.39h7.95l8.96,17.07,3.4,7.54h.21c-.37-3.63-.99-8.44-.99-12.49v-12.13h7.4v34.33h-7.95l-8.96-17.12-3.4-7.5h-.21c.37,3.79.99,8.39.99,12.43v12.18h-7.4v-34.33Z"/>
    <path class="st0" d="M235.96,185.39h9.29l10.78,34.33h-8.21l-4.49-17.39c-.95-3.43-1.87-7.49-2.79-11.07h-.21c-.83,3.62-1.75,7.64-2.7,11.07l-4.51,17.39h-7.94l10.78-34.33ZM232.28,205.51h16.52v6.03h-16.52v-6.03Z"/>
    <path class="st0" d="M262.62,191.9h-9.45v-6.51h26.66v6.51h-9.45v27.82h-7.76v-27.82Z"/>
    <path class="st0" d="M282.09,202.41c0-11.22,6.33-17.65,15.59-17.65s15.59,6.48,15.59,17.65-6.33,17.95-15.59,17.95-15.59-6.73-15.59-17.95ZM305.32,202.41c0-6.88-2.96-10.95-7.64-10.95s-7.64,4.06-7.64,10.95,2.96,11.24,7.64,11.24,7.64-4.36,7.64-11.24Z"/>
    <path class="st0" d="M319.74,185.39h12.36c7.28,0,13.25,2.53,13.25,10.69s-5.97,11.29-13.25,11.29h-4.6v12.35h-7.76v-34.33ZM331.47,201.2c4.08,0,6.28-1.75,6.28-5.12s-2.19-4.53-6.28-4.53h-3.97v9.65h3.97ZM330.69,205.32l5.37-4.97,10.96,19.37h-8.69l-7.64-14.4Z"/>
  </g>
</svg>