<?xml version="1.0" encoding="UTF-8"?>
<svg id="Layer_1" xmlns="http://www.w3.org/2000/svg" version="1.1" viewBox="0 0 80 80">
  <!-- Generator: Adobe Illustrator 30.0.0, SVG Export Plug-In . SVG Version: 2.1.1 Build 123)  -->
  <defs>
    <style>
      .st0, .st1, .st2, .st3, .st4, .st5, .st6 {
        stroke: #486072;
      }

      .st0, .st1, .st3, .st7 {
        stroke-linejoin: round;
      }

      .st0, .st2 {
        fill: #d8dce0;
      }

      .st0, .st2, .st3, .st7, .st6 {
        stroke-width: 1.5px;
      }

      .st1 {
        fill: #f8f9fa;
      }

      .st1, .st4 {
        stroke-width: 2px;
      }

      .st1, .st4, .st6 {
        stroke-linecap: round;
      }

      .st8, .st9, .st7 {
        fill: #df7926;
      }

      .st3, .st4, .st6 {
        fill: none;
      }

      .st4 {
        opacity: .6;
      }

      .st4, .st9, .st10, .st6 {
        isolation: isolate;
      }

      .st9 {
        opacity: .3;
      }

      .st7 {
        stroke: #d26727;
      }

      .st10 {
        fill: #fff;
        font-family: Georgia-Bold, Georgia;
        font-size: 14.76px;
        font-weight: 700;
      }

      .st5 {
        fill: #eef1f3;
        stroke-width: 1.8px;
      }

      .st6 {
        opacity: .4;
      }
    </style>
  </defs>
  <rect class="st2" x="16.53" y="1.91" width="49.18" height="63.94" rx="2" ry="2"/>
  <rect class="st5" x="11.61" y="6.83" width="49.18" height="63.94" rx="2" ry="2"/>
  <rect class="st1" x="6.69" y="11.75" width="49.18" height="63.94" rx="2" ry="2"/>
  <path class="st0" d="M43.58,11.75h12.3v12.3l-12.3-12.3Z"/>
  <path class="st3" d="M43.58,11.75v12.3h12.3"/>
  <line class="st4" x1="14.07" y1="31.42" x2="41.12" y2="31.42"/>
  <line class="st6" x1="14.07" y1="38.8" x2="36.2" y2="38.8"/>
  <line class="st6" x1="14.07" y1="46.17" x2="43.58" y2="46.17"/>
  <line class="st6" x1="14.07" y1="53.55" x2="33.74" y2="53.55"/>
  <line class="st6" x1="14.07" y1="60.93" x2="38.66" y2="60.93"/>
  <rect class="st9" x="12.84" y="43.72" width="31.97" height="4.92" rx="1" ry="1"/>
  <path class="st7" d="M50.96,36.34h12.3v17.21l-6.15-4.92-6.15,4.92v-17.21Z"/>
  <circle class="st8" cx="63.25" cy="65.85" r="12.3"/>
  <text class="st10" transform="translate(60.47 70.77)"><tspan x="0" y="0">!</tspan></text>
</svg>