<?xml version="1.0" encoding="UTF-8"?>
<svg id="Layer_1" xmlns="http://www.w3.org/2000/svg" version="1.1" viewBox="0 0 80 80">
  <!-- Generator: Adobe Illustrator 30.0.0, SVG Export Plug-In . SVG Version: 2.1.1 Build 123)  -->
  <defs>
    <style>
      .st0, .st1 {
        fill: #df7926;
      }

      .st2, .st3, .st4, .st1, .st5, .st6, .st7 {
        isolation: isolate;
      }

      .st2, .st4, .st6, .st7 {
        opacity: .7;
      }

      .st2, .st8 {
        fill: #ef5252;
      }

      .st3 {
        opacity: .84;
      }

      .st9, .st6 {
        fill: #486072;
      }

      .st10 {
        stroke: #bc5050;
      }

      .st10, .st4, .st11, .st12, .st13, .st14, .st7, .st15, .st16 {
        fill: none;
        stroke-linecap: round;
      }

      .st10, .st11 {
        stroke-width: 2.5px;
      }

      .st4, .st13 {
        stroke: #ef5252;
      }

      .st4, .st13, .st14 {
        stroke-width: 1.2px;
      }

      .st11 {
        stroke: #c9302c;
      }

      .st1 {
        opacity: .8;
      }

      .st12 {
        stroke: #3d6b7f;
        stroke-width: 2px;
      }

      .st5 {
        fill: #87b5c4;
      }

      .st17 {
        opacity: .6;
      }

      .st14, .st16 {
        stroke: #df7926;
      }

      .st7, .st15 {
        stroke: #486072;
      }

      .st7, .st15, .st16 {
        stroke-width: 1.8px;
      }
    </style>
  </defs>
  <path class="st5" d="M79.43,71.72c-6.52,1.28-13.06,1.28-19.58,0-6.52-1.28-13.06-1.28-19.58,0-6.52,1.28-13.06,1.28-19.58,0-6.52-1.28-13.52-1.26-20.04.02l.11-35.68c5.75-2.8,11.52-2.8,17.27,0,5.75,2.8,11.52,2.8,17.27,0,5.75-2.8,11.52-2.8,17.27,0,5.75,2.8,11.52,2.8,17.27,0,2.88-1.4,6.7-1.88,9.58-.49v36.15Z"/>
  <ellipse class="st1" cx="11.07" cy="14.02" rx="6.25" ry="6.3"/>
  <g class="st17">
    <line class="st14" x1="11.07" y1="5.63" x2="11.07" y2="3.53"/>
    <line class="st14" x1="17.32" y1="7.73" x2="19.4" y2="5.63"/>
    <line class="st14" x1="19.4" y1="14.02" x2="21.48" y2="14.02"/>
    <line class="st14" x1="17.32" y1="20.32" x2="19.4" y2="22.42"/>
  </g>
  <path class="st16" d="M21.2,19.12l6.25,12.59"/>
  <polygon class="st0" points="28.31 30.37 28.98 35.57 25.87 32.59 28.31 30.37"/>
  <path class="st16" d="M26.18,19.05l5.73,11.95"/>
  <polygon class="st0" points="32.78 28.97 33.41 34.19 30.31 31.18 32.78 28.97"/>
  <path class="st15" d="M50.64,28.71l4.17-12.59"/>
  <polygon class="st9" points="55.98 17.77 56.24 12.52 53.37 15.74 55.98 17.77"/>
  <path class="st7" d="M55.32,31.3l4.17-12.59"/>
  <polygon class="st6" points="60.7 20.39 60.9 15.15 58.07 18.4 60.7 20.39"/>
  <path class="st11" d="M2.59,35.57c5.55-2.8,11.11-2.8,16.66,0,5.55,2.8,11.11,2.8,16.66,0,5.55-2.8,11.11-2.8,16.66,0,5.55,2.8,11.11,2.8,16.66,0,2.78-1.4,5.55-1.4,8.33,0"/>
  <path class="st12" d="M2.55,55.18c5.55-2.1,11.11-2.1,16.66,0s11.11,2.1,16.66,0c5.55-2.1,11.11-2.1,16.66,0s11.11,2.1,16.66,0c2.78-1.4,5.55-1.4,8.33,0"/>
  <g class="st3">
    <path class="st13" d="M39.16,65.53c-1.39-2.8-1.39-5.59,0-8.39s1.39-5.59,0-8.39"/>
    <polygon class="st8" points="38.91 44.55 40.99 48.74 36.82 48.74 38.91 44.55"/>
  </g>
  <g>
    <path class="st4" d="M51.65,63.42c1.39-2.1,1.39-4.19,0-6.29s-1.39-4.2,0-6.3"/>
    <polygon class="st2" points="51.65 48.12 53.21 51.27 50.09 51.27 51.65 48.12"/>
  </g>
  <g>
    <path class="st4" d="M26.66,63.43c-1.39-2.1-1.39-4.2,0-6.3s1.39-4.2,0-6.3"/>
    <polygon class="st2" points="26.66 48.3 28.22 51.45 25.1 51.45 26.66 48.3"/>
  </g>
  <g class="st17">
    <line class="st14" x1="11.07" y1="22.49" x2="11.07" y2="24.59"/>
    <line class="st14" x1="4.82" y1="20.39" x2="2.74" y2="22.49"/>
    <line class="st14" x1="2.74" y1="14.1" x2=".65" y2="14.1"/>
    <line class="st14" x1="4.82" y1="7.8" x2="2.74" y2="5.7"/>
  </g>
  <path class="st10" d="M2.74,43.9c5.55-2.8,11.11-2.8,16.66,0,5.55,2.8,11.11,2.8,16.66,0,5.55-2.8,11.11-2.8,16.66,0,5.55,2.8,11.11,2.8,16.66,0,2.78-1.4,5.55-1.4,8.33,0"/>
</svg>