<?xml version="1.0" encoding="UTF-8"?>
<svg id="Layer_1" xmlns="http://www.w3.org/2000/svg" version="1.1" viewBox="0 0 80 80">
  <!-- Generator: Adobe Illustrator 30.0.0, SVG Export Plug-In . SVG Version: 2.1.1 Build 123)  -->
  <defs>
    <style>
      .st0 {
        fill: #df7926;
      }

      .st1 {
        fill: #cecece;
      }

      .st2 {
        fill: #179c93;
      }

      .st3 {
        fill: #fff;
      }
    </style>
  </defs>
  <path class="st0" d="M41.51,32.96c2.81-2.24,6.36.39,9.55-.1l.59,13.72c-3.52.22-6.81-2.45-10.14-.2v-13.42h0Z"/>
  <path class="st0" d="M40.92,32.66v13.52c-.56,0-1.02-.42-1.54-.55-2.88-.72-5.51,1.16-8.4.95l.4-13.72c3.28.36,6.37-1.77,9.55-.2Z"/>
  <path class="st0" d="M30.38,33.45l-.59,13.52c.95-.04,1.92.07,2.86-.02,2.04-.21,3.72-1.23,5.94-.93,1.22.17,2.07.99,3.38.7.33-.07.61-.36.94-.45,3.43-.98,6.25,1.23,9.74.7l-.41-8.24c.17-1.48-.1-2.93-.2-4.37-.07-1.05.26-1.41.8-.41l.59,13.82h-10.25c-1.59.79-2.68.11-4.17,0-3.23-.26-6.79.21-10.05,0l.79-14.32h.61Z"/>
  <polygon class="st2" points="10.89 36.64 10.7 36.54 10.79 36.44 10.89 36.64"/>
  <g>
    <g id="_x3C_Radial_Repeat_x3E_">
      <g>
        <path class="st1" d="M46.29,64.5c-2.38.98-5.82,1.43-8.06,1.26,0,0,.56-3.85.59-3.84,2.03-.09,3.63-.3,5.6-.85,0,0,1.87,3.43,1.87,3.43Z"/>
        <path class="st1" d="M31.09,64.59c-2.88-.4-7.88-3.17-9.28-4.78,0,0,2.59-3.01,2.62-2.99,1.28,1.26,5.12,3.42,7.44,3.98,0,0-.79,3.78-.79,3.78Z"/>
        <g>
          <circle class="st1" cx="43.24" cy="72.97" r="5.81"/>
          <path class="st1" d="M36.83,73.76c-.04-2.22.37-3.88,2.02-5.4-1.47-1.57-2.63-2.78-1.9-5.79.57-1.66,2.25-2.85,1.91-3.91-.4-.99-.68-1.54-2.2-1.48-2.57.09-4.06,4.55-4.3,6.66-.44,3.85.89,8.28,4.47,9.91Z"/>
          <path class="st1" d="M51.24,61.09c-.78-1.98-3.39-5.89-5.9-5.3-1.48.34-1.6.95-1.73,2.01-.05,1.11,1.88,1.82,2.87,3.27,1.49,2.71.7,4.18-.31,6.08,1.99,1.03,2.82,2.52,3.37,4.68,3.03-2.51,3.14-7.14,1.7-10.74Z"/>
          <circle class="st3" cx="43.24" cy="72.97" r="4.44"/>
        </g>
      </g>
    </g>
    <g id="_x3C_Radial_Repeat_x3E_1" data-name="_x3C_Radial_Repeat_x3E_">
      <g>
        <path class="st1" d="M16.05,52.94c-1.66-1.96-3.16-5.09-3.68-7.27,0,0,3.83-.66,3.84-.63.71,1.9,1.41,3.36,2.54,5.07,0,0-2.69,2.84-2.69,2.84Z"/>
        <path class="st1" d="M11.27,38.51c-.51-2.86.58-8.47,1.68-10.3,0,0,3.67,1.53,3.65,1.57-.8,1.61-1.67,5.93-1.49,8.31,0,0-3.84.42-3.84.42Z"/>
        <g>
          <circle class="st1" cx="7.05" cy="52.66" r="5.81"/>
          <path class="st1" d="M4.32,46.8c2.1-.73,3.81-.84,5.76.25,1.03-1.89,1.83-3.36,4.91-3.6,1.76.03,3.4,1.26,4.31.61.81-.69,1.25-1.12.73-2.55-.88-2.42-5.58-2.46-7.67-2.03-3.8.77-7.6,3.4-8.05,7.31Z"/>
          <path class="st1" d="M20.82,56.59c1.64-1.36,4.55-5.05,3.22-7.25-.78-1.3-1.4-1.23-2.44-1.02-1.08.3-1.15,2.35-2.22,3.74-2.12,2.26-3.76,1.95-5.88,1.58-.37,2.21-1.53,3.47-3.41,4.65,3.32,2.1,7.76.78,10.74-1.7Z"/>
          <circle class="st3" cx="7.05" cy="52.66" r="4.44"/>
        </g>
      </g>
    </g>
    <g id="_x3C_Radial_Repeat_x3E_2" data-name="_x3C_Radial_Repeat_x3E_">
      <g>
        <path class="st1" d="M17.7,20.61c1.35-2.19,3.87-4.58,5.78-5.75,0,0,1.81,3.44,1.78,3.45-1.59,1.27-2.76,2.38-4.03,3.98,0,0-3.53-1.68-3.53-1.68Z"/>
        <path class="st1" d="M29.94,11.6c2.57-1.37,8.24-2.06,10.31-1.59,0,0-.33,3.96-.36,3.96-1.78-.27-6.16.25-8.36,1.16,0,0-1.59-3.52-1.59-3.52Z"/>
        <g>
          <circle class="st1" cx="15.19" cy="11.96" r="5.81"/>
          <path class="st1" d="M19.91,7.56c1.34,1.78,1.98,3.36,1.54,5.56,2.11.4,3.76.7,4.94,3.56.51,1.68-.15,3.63.75,4.28.91.56,1.45.85,2.65-.09,2.03-1.59.61-6.06-.44-7.92-1.91-3.37-5.58-6.18-9.44-5.39Z"/>
          <path class="st1" d="M15.7,26.27c1.8,1.14,6.21,2.77,7.89.82,1-1.15.74-1.71.22-2.64-.61-.93-2.59-.36-4.24-.96-2.8-1.32-3.02-2.97-3.32-5.1-2.22.33-3.77-.38-5.48-1.8-.97,3.81,1.66,7.62,4.93,9.69Z"/>
          <circle class="st3" cx="15.19" cy="11.96" r="4.44"/>
        </g>
      </g>
    </g>
    <g id="_x3C_Radial_Repeat_x3E_3" data-name="_x3C_Radial_Repeat_x3E_">
      <g>
        <path class="st1" d="M48.96,12.19c2.5.61,5.55,2.26,7.26,3.72,0,0-2.71,2.79-2.73,2.76-1.7-1.12-3.11-1.89-5.03-2.61,0,0,.51-3.87.51-3.87Z"/>
        <path class="st1" d="M61.31,21.05c2.09,2.02,4.51,7.2,4.7,9.32,0,0-3.87.91-3.87.88-.3-1.78-2.14-5.78-3.68-7.6,0,0,2.86-2.6,2.86-2.6Z"/>
        <g>
          <circle class="st1" cx="56.41" cy="7.12" r="5.81"/>
          <path class="st1" d="M62.05,10.26c-1.27,1.82-2.58,2.92-4.81,3.18.27,2.13.49,3.79-1.86,5.8-1.44,1.01-3.49.98-3.84,2.04-.25,1.03-.36,1.64.91,2.49,2.13,1.44,5.96-1.29,7.39-2.86,2.62-2.86,4.15-7.22,2.21-10.64Z"/>
          <path class="st1" d="M42.95,12.03c-.53,2.06-.72,6.76,1.66,7.75,1.4.59,1.85.17,2.58-.61.7-.87-.45-2.57-.4-4.33.39-3.07,1.89-3.79,3.83-4.74-1-2-.8-3.7.02-5.77-3.92.25-6.73,3.93-7.69,7.68Z"/>
          <circle class="st3" cx="56.41" cy="7.12" r="4.44"/>
        </g>
      </g>
    </g>
    <g id="_x3C_Radial_Repeat_x3E_4" data-name="_x3C_Radial_Repeat_x3E_">
      <g>
        <path class="st1" d="M66.63,39.31c.19,2.57-.44,5.98-1.29,8.05,0,0-3.49-1.72-3.47-1.75.54-1.96.84-3.55.93-5.59,0,0,3.84-.71,3.84-.71Z"/>
        <path class="st1" d="M62.02,53.8c-1.27,2.62-5.45,6.51-7.41,7.35,0,0-2.07-3.4-2.03-3.41,1.6-.83,4.84-3.82,6.09-5.85,0,0,3.35,1.92,3.35,1.92Z"/>
        <g>
          <circle class="st1" cx="73.74" cy="44.83" r="5.81"/>
          <path class="st1" d="M72.51,51.17c-2.13-.65-3.58-1.55-4.51-3.59-1.95.92-3.45,1.64-6.09.02-1.4-1.06-2.01-3.02-3.13-3.02-1.06.08-1.67.17-2.09,1.63-.71,2.47,3.07,5.27,5.01,6.15,3.53,1.61,8.15,1.72,10.8-1.18Z"/>
          <path class="st1" d="M64.92,33.55c-2.13.13-6.65,1.41-6.86,3.97-.13,1.51.41,1.82,1.37,2.26,1.04.39,2.31-1.23,4-1.72,3.04-.58,4.19.63,5.69,2.18,1.6-1.57,3.27-1.91,5.49-1.76-1.45-3.65-5.82-5.19-9.68-4.94Z"/>
          <circle class="st3" cx="73.74" cy="44.83" r="4.44"/>
        </g>
      </g>
    </g>
  </g>
</svg>